<svg width="181" height="45" viewBox="0 0 181 45" fill="none" xmlns="http://www.w3.org/2000/svg">
<path d="M45.3354 31.3965V16.0323H55.6882V18.7106H48.5837V22.3715H55.1555V25.0498H48.5837V28.7183H55.7182V31.3965H45.3354ZM61.4066 16.0323V31.3965H58.2107V16.0323H61.4066ZM69.2181 31.6215C68.0327 31.6215 67.0125 31.3815 66.1572 30.9014C65.307 30.4162 64.6518 29.731 64.1917 28.8458C63.7316 27.9556 63.5015 26.9028 63.5015 25.6874C63.5015 24.5021 63.7316 23.4618 64.1917 22.5666C64.6518 21.6714 65.2995 20.9737 66.1347 20.4735C66.975 19.9734 67.9602 19.7233 69.0905 19.7233C69.8507 19.7233 70.5584 19.8459 71.2136 20.0909C71.8738 20.331 72.4489 20.6936 72.9391 21.1787C73.4342 21.6639 73.8193 22.274 74.0944 23.0092C74.3695 23.7394 74.507 24.5946 74.507 25.5749V26.4526H64.7769V24.4721H71.4987C71.4987 24.012 71.3986 23.6044 71.1986 23.2493C70.9985 22.8942 70.721 22.6166 70.3659 22.4166C70.0158 22.2115 69.6082 22.109 69.143 22.109C68.6579 22.109 68.2278 22.2215 67.8527 22.4466C67.4826 22.6666 67.1925 22.9642 66.9825 23.3393C66.7724 23.7094 66.6649 24.122 66.6599 24.5771V26.4602C66.6599 27.0303 66.7649 27.5229 66.975 27.9381C67.19 28.3532 67.4926 28.6732 67.8827 28.8983C68.2728 29.1234 68.7354 29.2359 69.2706 29.2359C69.6257 29.2359 69.9508 29.1859 70.2458 29.0859C70.5409 28.9858 70.7935 28.8358 71.0035 28.6357C71.2136 28.4357 71.3736 28.1906 71.4837 27.9005L74.4395 28.0956C74.2894 28.8058 73.9818 29.426 73.5167 29.9561C73.0566 30.4812 72.4614 30.8913 71.7312 31.1864C71.006 31.4765 70.1683 31.6215 69.2181 31.6215ZM81.799 31.6215C80.6186 31.6215 79.6034 31.3715 78.7531 30.8713C77.9079 30.3662 77.2577 29.666 76.8026 28.7708C76.3525 27.8755 76.1274 26.8453 76.1274 25.6799C76.1274 24.4996 76.355 23.4643 76.8101 22.5741C77.2702 21.6789 77.9229 20.9812 78.7681 20.481C79.6134 19.9759 80.6186 19.7233 81.784 19.7233C82.7892 19.7233 83.6695 19.9059 84.4247 20.271C85.1799 20.6361 85.7775 21.1487 86.2177 21.8089C86.6578 22.4691 86.9003 23.2443 86.9453 24.1345H83.9295C83.8445 23.5594 83.6194 23.0967 83.2544 22.7466C82.8943 22.3916 82.4216 22.214 81.8365 22.214C81.3413 22.214 80.9087 22.349 80.5386 22.6191C80.1735 22.8842 79.8884 23.2718 79.6834 23.7819C79.4783 24.2921 79.3758 24.9097 79.3758 25.6349C79.3758 26.3701 79.4758 26.9953 79.6759 27.5104C79.8809 28.0256 80.1685 28.4182 80.5386 28.6883C80.9087 28.9583 81.3413 29.0934 81.8365 29.0934C82.2016 29.0934 82.5292 29.0183 82.8192 28.8683C83.1143 28.7183 83.3569 28.5007 83.5469 28.2156C83.742 27.9255 83.8695 27.578 83.9295 27.1728H86.9453C86.8953 28.0531 86.6553 28.8283 86.2252 29.4985C85.8 30.1637 85.2124 30.6838 84.4622 31.0589C83.712 31.434 82.8242 31.6215 81.799 31.6215ZM95.1207 19.8734V22.274H88.1813V19.8734H95.1207ZM89.7567 17.1126H92.9526V27.8555C92.9526 28.1506 92.9976 28.3807 93.0876 28.5457C93.1777 28.7058 93.3027 28.8183 93.4627 28.8833C93.6278 28.9483 93.8178 28.9808 94.0329 28.9808C94.1829 28.9808 94.333 28.9683 94.483 28.9433C94.6331 28.9133 94.7481 28.8908 94.8281 28.8758L95.3307 31.2539C95.1707 31.304 94.9456 31.3615 94.6556 31.4265C94.3655 31.4965 94.0129 31.539 93.5978 31.554C92.8276 31.584 92.1524 31.4815 91.5722 31.2464C90.9971 31.0114 90.5494 30.6463 90.2294 30.1511C89.9093 29.656 89.7517 29.0308 89.7567 28.2756V17.1126ZM97.2025 31.3965V19.8734H100.301V21.8839H100.421C100.631 21.1687 100.984 20.6286 101.479 20.2635C101.974 19.8934 102.544 19.7083 103.189 19.7083C103.349 19.7083 103.522 19.7183 103.707 19.7383C103.892 19.7583 104.054 19.7858 104.194 19.8209V22.6566C104.044 22.6116 103.837 22.5716 103.572 22.5366C103.307 22.5016 103.064 22.4841 102.844 22.4841C102.374 22.4841 101.954 22.5866 101.584 22.7917C101.219 22.9917 100.929 23.2718 100.713 23.6319C100.503 23.992 100.398 24.4071 100.398 24.8772V31.3965H97.2025ZM110.517 31.6215C109.351 31.6215 108.344 31.374 107.493 30.8788C106.648 30.3787 105.995 29.6835 105.535 28.7933C105.075 27.898 104.845 26.8603 104.845 25.6799C104.845 24.4896 105.075 23.4493 105.535 22.5591C105.995 21.6639 106.648 20.9687 107.493 20.4735C108.344 19.9734 109.351 19.7233 110.517 19.7233C111.682 19.7233 112.687 19.9734 113.533 20.4735C114.383 20.9687 115.038 21.6639 115.498 22.5591C115.958 23.4493 116.188 24.4896 116.188 25.6799C116.188 26.8603 115.958 27.898 115.498 28.7933C115.038 29.6835 114.383 30.3787 113.533 30.8788C112.687 31.374 111.682 31.6215 110.517 31.6215ZM110.532 29.1459C111.062 29.1459 111.504 28.9958 111.86 28.6958C112.215 28.3907 112.482 27.9756 112.662 27.4504C112.847 26.9253 112.94 26.3276 112.94 25.6574C112.94 24.9873 112.847 24.3896 112.662 23.8645C112.482 23.3393 112.215 22.9242 111.86 22.6191C111.504 22.314 111.062 22.1615 110.532 22.1615C109.997 22.1615 109.546 22.314 109.181 22.6191C108.821 22.9242 108.549 23.3393 108.364 23.8645C108.184 24.3896 108.094 24.9873 108.094 25.6574C108.094 26.3276 108.184 26.9253 108.364 27.4504C108.549 27.9756 108.821 28.3907 109.181 28.6958C109.546 28.9958 109.997 29.1459 110.532 29.1459ZM127.854 23.1593L124.928 23.3393C124.878 23.0892 124.771 22.8642 124.606 22.6641C124.44 22.4591 124.223 22.2965 123.953 22.1765C123.688 22.0515 123.37 21.9889 123 21.9889C122.505 21.9889 122.087 22.094 121.747 22.304C121.407 22.5091 121.237 22.7842 121.237 23.1293C121.237 23.4043 121.347 23.6369 121.567 23.8269C121.787 24.017 122.165 24.1695 122.7 24.2846L124.786 24.7047C125.906 24.9347 126.741 25.3048 127.291 25.815C127.841 26.3251 128.116 26.9953 128.116 27.8255C128.116 28.5807 127.894 29.2434 127.449 29.8136C127.009 30.3837 126.404 30.8288 125.633 31.1489C124.868 31.464 123.985 31.6215 122.985 31.6215C121.46 31.6215 120.244 31.304 119.339 30.6688C118.439 30.0286 117.911 29.1584 117.756 28.0581L120.9 27.893C120.995 28.3582 121.225 28.7133 121.59 28.9583C121.955 29.1984 122.422 29.3184 122.993 29.3184C123.553 29.3184 124.003 29.2109 124.343 28.9958C124.688 28.7758 124.863 28.4932 124.868 28.1481C124.863 27.858 124.741 27.6205 124.5 27.4354C124.26 27.2454 123.89 27.1003 123.39 27.0003L121.395 26.6027C120.269 26.3776 119.432 25.9875 118.881 25.4324C118.336 24.8772 118.064 24.1695 118.064 23.3093C118.064 22.5691 118.264 21.9314 118.664 21.3963C119.069 20.8611 119.637 20.4485 120.367 20.1584C121.102 19.8684 121.962 19.7233 122.948 19.7233C124.403 19.7233 125.548 20.0309 126.384 20.6461C127.224 21.2612 127.714 22.099 127.854 23.1593ZM137.518 26.4902V19.8734H140.714V31.3965H137.646V29.3034H137.526C137.266 29.9786 136.833 30.5212 136.228 30.9314C135.628 31.3415 134.895 31.5465 134.03 31.5465C133.26 31.5465 132.582 31.3715 131.997 31.0214C131.412 30.6713 130.954 30.1737 130.624 29.5285C130.299 28.8833 130.134 28.1106 130.129 27.2104V19.8734H133.325V26.6402C133.33 27.3204 133.512 27.858 133.872 28.2531C134.232 28.6482 134.715 28.8458 135.32 28.8458C135.705 28.8458 136.065 28.7583 136.401 28.5832C136.736 28.4032 137.006 28.1381 137.211 27.788C137.421 27.4379 137.523 27.0053 137.518 26.4902ZM143.271 31.3965V19.8734H146.316V21.9064H146.451C146.691 21.2312 147.092 20.6986 147.652 20.3085C148.212 19.9184 148.882 19.7233 149.662 19.7233C150.453 19.7233 151.125 19.9209 151.68 20.316C152.235 20.7061 152.606 21.2362 152.791 21.9064H152.911C153.146 21.2462 153.571 20.7186 154.186 20.3235C154.806 19.9234 155.539 19.7233 156.384 19.7233C157.459 19.7233 158.332 20.0659 159.002 20.7511C159.677 21.4313 160.015 22.3966 160.015 23.6469V31.3965H156.827V24.2771C156.827 23.6369 156.657 23.1568 156.317 22.8367C155.976 22.5166 155.551 22.3565 155.041 22.3565C154.461 22.3565 154.008 22.5416 153.683 22.9117C153.358 23.2768 153.196 23.7594 153.196 24.3596V31.3965H150.097V24.2095C150.097 23.6444 149.935 23.1943 149.61 22.8592C149.29 22.5241 148.867 22.3565 148.342 22.3565C147.987 22.3565 147.667 22.4466 147.382 22.6266C147.102 22.8017 146.879 23.0492 146.714 23.3693C146.549 23.6844 146.466 24.0545 146.466 24.4796V31.3965H143.271ZM162.54 31.3965V19.8734H165.735V31.3965H162.54ZM164.145 18.388C163.67 18.388 163.262 18.2304 162.922 17.9153C162.587 17.5953 162.419 17.2127 162.419 16.7675C162.419 16.3274 162.587 15.9498 162.922 15.6347C163.262 15.3146 163.67 15.1546 164.145 15.1546C164.62 15.1546 165.025 15.3146 165.36 15.6347C165.7 15.9498 165.87 16.3274 165.87 16.7675C165.87 17.2127 165.7 17.5953 165.36 17.9153C165.025 18.2304 164.62 18.388 164.145 18.388ZM173.487 35.9577C172.452 35.9577 171.564 35.8152 170.824 35.5301C170.088 35.25 169.503 34.8674 169.068 34.3823C168.633 33.8972 168.35 33.352 168.22 32.7468L171.176 32.3492C171.266 32.5793 171.409 32.7944 171.604 32.9944C171.799 33.1945 172.056 33.3545 172.377 33.4745C172.702 33.5996 173.097 33.6621 173.562 33.6621C174.257 33.6621 174.83 33.4921 175.28 33.152C175.735 32.8169 175.963 32.2542 175.963 31.464V29.3559H175.827C175.687 29.676 175.477 29.9786 175.197 30.2637C174.917 30.5488 174.557 30.7813 174.117 30.9614C173.677 31.1414 173.152 31.2314 172.542 31.2314C171.676 31.2314 170.889 31.0314 170.178 30.6313C169.473 30.2262 168.911 29.6085 168.49 28.7783C168.075 27.9431 167.868 26.8878 167.868 25.6124C167.868 24.3071 168.08 23.2168 168.505 22.3415C168.931 21.4663 169.496 20.8111 170.201 20.376C170.911 19.9409 171.689 19.7233 172.534 19.7233C173.179 19.7233 173.719 19.8334 174.155 20.0534C174.59 20.2685 174.94 20.5386 175.205 20.8636C175.475 21.1837 175.682 21.4988 175.827 21.8089H175.948V19.8734H179.121V31.509C179.121 32.4893 178.881 33.3095 178.401 33.9697C177.921 34.6299 177.255 35.125 176.405 35.4551C175.56 35.7902 174.587 35.9577 173.487 35.9577ZM173.554 28.8308C174.069 28.8308 174.505 28.7033 174.86 28.4482C175.22 28.1881 175.495 27.818 175.685 27.3379C175.88 26.8528 175.978 26.2726 175.978 25.5974C175.978 24.9222 175.882 24.3371 175.692 23.8419C175.502 23.3418 175.227 22.9542 174.867 22.6791C174.507 22.4041 174.069 22.2665 173.554 22.2665C173.029 22.2665 172.587 22.4091 172.227 22.6941C171.866 22.9742 171.594 23.3643 171.409 23.8645C171.224 24.3646 171.131 24.9422 171.131 25.5974C171.131 26.2626 171.224 26.8378 171.409 27.3229C171.599 27.803 171.871 28.1756 172.227 28.4407C172.587 28.7008 173.029 28.8308 173.554 28.8308Z" fill="black"/>
<path d="M8.42309 35.1892L20.4023 31.5427L21.2298 39.8074L10.5471 45L8.42309 35.1892ZM5.15607 20.0973L19.1874 19.4111L20.1995 29.52L7.89093 32.7314L5.15607 20.0973ZM21.3015 19.3076L29.5295 18.9051L29.6536 27.0532L22.105 29.0227L21.3015 19.3076ZM0.805664 0L17.671 4.26391L18.9372 16.9112L4.45907 16.8798L0.805664 0ZM20.1083 4.88028L29.3519 7.21724L29.4995 16.9341L21.1037 16.9159L20.1083 4.88028ZM30.8074 7.58525L36.6403 9.05998L36.3271 16.949L30.8482 16.9372L30.8074 7.58525Z" fill="black"/>
</svg>
