<svg width="186" height="39" viewBox="0 0 186 39" fill="none" xmlns="http://www.w3.org/2000/svg">
<path d="M19.5359 38.5C18.2529 38.5002 16.9731 38.3708 15.7161 38.1138C13.291 37.6157 10.988 36.6442 8.9389 35.2549C7.93215 34.5726 6.99287 33.7957 6.13385 32.9348C6.06228 32.863 5.99003 32.7894 5.91907 32.716L12.9111 25.8457L12.9336 25.8683C13.7849 26.7204 14.7927 27.4 15.9017 27.8698C17.3393 28.4782 18.9066 28.7159 20.4599 28.5612C22.0133 28.4065 23.5029 27.8643 24.7922 26.9844C25.2905 26.6442 25.7548 26.2569 26.1788 25.8277L19.5718 19.3021L19.6077 19.2669H38.4878C38.4888 19.3454 38.4893 19.4239 38.4893 19.5006C38.4896 20.7868 38.3606 22.0697 38.1042 23.3301C37.6081 25.7597 36.6391 28.0682 35.2524 30.124C33.1974 33.177 30.3006 35.5679 26.9134 37.0069C25.767 37.4926 24.5753 37.8634 23.3557 38.1138C22.0987 38.3708 20.8189 38.5002 19.5359 38.5ZM10.1995 19.2666H0.583984C0.598377 18.0586 0.726848 16.8547 0.967685 15.6709C1.46383 13.2412 2.4328 10.9328 3.81948 8.87691C5.8744 5.82371 8.77117 3.43242 12.1584 1.99313C13.3048 1.50734 14.4965 1.13649 15.7161 0.886034C18.2366 0.371322 20.8351 0.371322 23.3556 0.886034C25.7808 1.38408 28.084 2.35563 30.1332 3.74505C31.1126 4.40884 32.0281 5.16212 32.8682 5.99521L26.1525 12.6796L26.1476 12.6747L26.1376 12.6647C25.2864 11.8129 24.2787 11.1336 23.1698 10.664C21.7391 10.0585 20.1797 9.82007 18.6333 9.9704C17.087 10.1207 15.6027 10.655 14.3154 11.5248C12.8143 12.5381 11.6393 13.9651 10.9328 15.6327C10.4463 16.7823 10.1968 18.0183 10.1992 19.2666H10.1995Z" fill="black" stroke="black" stroke-width="0.479495" stroke-linejoin="round"/>
<path d="M62.2558 16.1978V9.45741H58.2975V13.4836C57.7415 13.6153 57.1723 13.6836 56.601 13.6873C53.6605 13.6873 51.9188 11.493 51.9188 8.95964C51.9188 6.44885 53.6829 4.27746 56.8046 4.27746C58.486 4.27483 60.147 4.64567 61.6677 5.3632V1.58575C60.5819 1.06553 58.8402 0.5 56.4426 0.5C51.3759 0.5 47.7568 4.25481 47.7568 8.95984C47.7568 13.7099 51.3307 17.4197 56.601 17.4197C58.5914 17.4192 60.7176 16.9668 62.2558 16.1978ZM65.7166 0.817144V17.1025H69.7655V11.7418H71.5749L74.1988 17.1025H78.5189L75.2393 11.0632C77.0262 10.2713 78.225 8.71076 78.225 6.35834C78.225 2.69405 75.5333 0.816642 71.6428 0.816642L65.7166 0.817144ZM71.8238 4.30051C73.0678 4.30051 74.0405 4.9339 74.0405 6.35884C74.0405 7.85174 73.0905 8.43982 71.8464 8.43982H69.7654V4.30011L71.8238 4.30051ZM95.5513 0.817144H91.3894V10.6113C91.3894 12.5339 90.3941 13.6423 88.4715 13.6423C86.5489 13.6423 85.531 12.534 85.531 10.6113V0.817144H81.3913V11.0632C81.3913 14.8858 84.0152 17.4192 88.4711 17.4192C92.9497 17.4192 95.5509 14.8858 95.5509 11.0632L95.5513 0.817144ZM104.87 11.9232C108.784 11.9232 111.498 10.091 111.498 6.35884C111.498 2.67189 108.784 0.817144 104.87 0.817144H99.4419V17.1025H103.582V11.9232H104.87ZM105.051 4.30051C106.318 4.30051 107.313 4.9339 107.313 6.35884C107.313 7.82909 106.341 8.43982 105.074 8.43982H103.581V4.30011L105.051 4.30051ZM113.737 8.96004C113.737 13.6874 117.334 17.4199 122.355 17.4199C127.399 17.4199 130.973 13.6877 130.973 8.96004C130.973 4.27786 127.377 0.5002 122.355 0.5002C117.334 0.5002 113.737 4.30001 113.737 8.95964L113.737 8.96004ZM117.899 8.96004C117.899 6.44925 119.709 4.27786 122.355 4.27786C125.002 4.27786 126.789 6.44935 126.789 8.96004C126.789 11.4934 125.002 13.6422 122.355 13.6422C119.709 13.6422 117.899 11.493 117.899 8.95964L117.899 8.96004Z" fill="black"/>
<path d="M61.1183 22.5519C60.1218 22.0311 58.6052 21.4648 56.4305 21.4648C51.3576 21.4648 47.7568 25.2242 47.7568 29.9348C47.7568 34.6906 51.3576 38.4046 56.2493 38.4046C58.3781 38.4046 60.2351 37.8838 61.2315 37.363V33.5354C59.8002 34.2608 58.2163 34.6335 56.6117 34.6224C53.6676 34.6224 51.9239 32.471 51.9239 29.9346C51.9239 27.4216 53.7129 25.2468 56.7929 25.2468C58.3016 25.2522 59.7863 25.6253 61.1183 26.3339V22.5519ZM63.4734 29.9348C63.4734 34.6679 67.0742 38.4046 72.1018 38.4046C77.152 38.4046 80.7301 34.6681 80.7301 29.9348C80.7301 25.247 77.1293 21.465 72.1018 21.465C67.0742 21.465 63.4734 25.2695 63.4734 29.9348ZM67.6398 29.9348C67.6398 27.4217 69.4515 25.247 72.1011 25.247C74.7507 25.247 76.5403 27.4209 76.5403 29.9348C76.5403 32.4711 74.7512 34.6226 72.1016 34.6226C69.452 34.6226 67.6405 32.471 67.6405 29.9348H67.6398ZM91.9175 33.5807C92.9366 32.6295 93.933 31.6557 94.9521 30.6819L95.9937 29.7987V38.0873H99.9795V21.5553H99.8663L91.9173 28.7803L83.9683 21.5553H83.8777V38.0873H87.8182V29.7987L88.8826 30.6819C89.9019 31.6557 90.8983 32.6297 91.9175 33.5807ZM115.063 38.0873V34.5998H108.178V31.475H113.771V28.1684H108.178V25.2695H114.722V21.782H104.033V38.0873H115.063ZM118.21 21.7818V38.0873H122.264V32.7201H124.076L126.702 38.0873H131.027L127.744 32.0408C129.533 31.2482 130.733 29.6856 130.733 27.3303C130.733 23.6616 128.038 21.782 124.143 21.782L118.21 21.7818ZM124.325 25.2693C125.571 25.2693 126.545 25.9033 126.545 27.3302C126.545 28.8248 125.593 29.4133 124.348 29.4133H122.265V25.2695L124.325 25.2693ZM146.518 22.5519C145.522 22.0311 144.005 21.4648 141.83 21.4648C136.758 21.4648 133.157 25.2242 133.157 29.9346C133.157 34.6904 136.758 38.4044 141.649 38.4044C143.778 38.4044 145.635 37.8836 146.632 37.3628V33.5354C145.2 34.2608 143.616 34.6335 142.012 34.6224C139.068 34.6224 137.324 32.471 137.324 29.9346C137.324 27.4216 139.113 25.2468 142.193 25.2468C143.702 25.2522 145.186 25.6253 146.518 26.3339V22.5519ZM153.969 38.0873V21.7818H149.825V38.0873H153.969ZM156.256 38.0873H160.582L161.714 35.5962H167.194L168.349 38.0873H172.675L164.567 21.5553H164.363L156.256 38.0873ZM162.914 32.8107C163.367 31.7691 164.251 29.4591 164.477 28.9155C164.794 29.912 165.451 31.5198 166.017 32.8107H162.914ZM185.017 38.0873V34.5998H179.129V21.782H174.985V38.0873H185.017Z" fill="black"/>
</svg>
