<svg width="164" height="45" viewBox="0 0 164 45" fill="none" xmlns="http://www.w3.org/2000/svg">
<g clip-path="url(#clip0_1322_179)">
<path d="M9.48727 38.1533C11.0561 40.1482 12.6115 42.153 14.1536 44.1675C14.369 44.4485 14.5897 44.7237 14.8101 44.9995H4.71081C4.09245 44.9999 3.48006 44.8785 2.90862 44.6422C2.33719 44.4059 1.81791 44.0593 1.38044 43.6223C0.942979 43.1853 0.595903 42.6663 0.359043 42.0951C0.122182 41.5239 0.000177759 40.9117 0 40.2933V30.5253C0.150384 30.2747 0.330657 30.0941 0.651246 29.7933C3.3174 27.3076 5.94373 24.7715 8.60501 22.2656C9.47693 21.4439 10.2939 20.5516 11.2964 19.8749C14.5542 17.6747 18.8694 19.1433 20.1173 22.8772C20.9344 25.318 20.1973 27.3727 18.4583 29.0919C15.9172 31.5877 13.3111 34.0184 10.7301 36.4745C10.3489 36.8351 9.95314 37.186 9.56221 37.5417C9.36194 37.7272 9.26172 37.8675 9.48727 38.1533Z" fill="#040405"/>
<path d="M36.0614 22.5091C36.0615 23.702 36.5354 24.8461 37.3789 25.6896C38.2224 26.5331 39.3665 27.007 40.5594 27.007H45.0016V40.4819C45.0016 41.0752 44.8847 41.6627 44.6576 42.2109C44.4305 42.759 44.0977 43.2571 43.6782 43.6766C43.2586 44.0962 42.7605 44.4289 42.2124 44.656C41.6642 44.883 41.0767 44.9999 40.4834 44.9999H25.2598C24.9639 44.5989 24.6381 44.218 24.3325 43.8223C22.7887 41.7923 21.2333 39.7708 19.6664 37.758C19.4711 37.5074 19.5059 37.3368 19.7266 37.1261C23.0296 34.0133 26.2272 31.0522 26.9067 26.2855C27.5369 21.8627 25.9248 17.3401 22.4391 14.5946C20.2698 12.899 17.6054 11.9598 14.8524 11.9201C12.6949 11.9011 10.5709 12.4545 8.69711 13.5242C6.76685 14.6221 5.18955 16.2879 3.61505 17.8277C2.4634 18.9539 1.30687 20.0579 0.145915 21.1736C0.123342 21.1954 0.0888944 21.2269 0 21.3138V4.7142C4.78907e-05 3.4648 0.496387 2.26659 1.37984 1.38312C2.2633 0.499662 3.4615 0.00331004 4.7109 0.00325017L18.0192 0V4.46693C18.0192 5.66254 18.4942 6.80917 19.3396 7.65459C20.185 8.50002 21.3316 8.97498 22.5272 8.97499C23.7228 8.97496 24.8695 8.5 25.7149 7.65458C26.5603 6.80916 27.0352 5.66253 27.0353 4.46693V0.00325017H40.4834C41.0767 0.00325017 41.6643 0.120129 42.2125 0.34721C42.7607 0.574292 43.2588 0.907131 43.6783 1.32672C44.0979 1.74631 44.4307 2.24443 44.6577 2.79264C44.8848 3.34085 45.0016 3.92842 45.0015 4.52178V18.0107H40.5593C39.3664 18.0108 38.2223 18.4848 37.3788 19.3284C36.5353 20.172 36.0614 21.3161 36.0614 22.5091Z" fill="#040405"/>
<path d="M65.4429 20.7072C65.729 21.1126 66.2058 21.3273 66.683 21.3273C66.9927 21.3274 67.294 21.227 67.5416 21.0411C68.2333 20.5164 68.4956 19.6099 67.9709 18.9184L62.6047 11.358L67.0885 6.96967C67.6609 6.42114 67.6132 5.53851 67.0647 4.94257C66.8049 4.68388 66.4535 4.53817 66.0868 4.53711C65.706 4.53764 65.3395 4.68253 65.0613 4.94257L58.741 11.1433V6.18254C58.7409 5.75876 58.5726 5.35236 58.2729 5.05271C57.9733 4.75305 57.5669 4.58468 57.1431 4.5846C56.9314 4.58216 56.7214 4.62165 56.5251 4.70079C56.3288 4.77993 56.1501 4.89716 55.9993 5.04572C55.8485 5.19427 55.7287 5.37121 55.6466 5.56633C55.5646 5.76144 55.522 5.97087 55.5213 6.18254V20.8026C55.5217 20.9289 55.5721 21.05 55.6614 21.1394C55.7508 21.2288 55.8719 21.2791 55.9983 21.2795H58.264C58.3904 21.2791 58.5115 21.2287 58.6009 21.1394C58.6902 21.05 58.7406 20.9289 58.741 20.8026V15.1502L60.3628 13.5522L65.4429 20.7072ZM75.6745 8.87758C72.0492 8.87758 69.9505 11.1195 69.9505 14.3392V20.8264C69.9545 20.9453 70.0035 21.0583 70.0876 21.1424C70.1718 21.2265 70.2847 21.2756 70.4036 21.2795H72.574C72.6929 21.2756 72.8059 21.2265 72.89 21.1424C72.9741 21.0583 73.0231 20.9453 73.0271 20.8264V14.4107C73.0271 12.7413 73.9096 11.5487 75.6745 11.5487H76.39C76.7442 11.5487 77.0839 11.408 77.3344 11.1576C77.5848 10.9071 77.7256 10.5674 77.7256 10.2131C77.7256 9.85892 77.5848 9.5192 77.3344 9.26873C77.0839 9.01825 76.7442 8.87754 76.39 8.87754L75.6745 8.87758ZM88.7204 16.2949C89.3405 16.2949 90.1991 15.9848 90.1991 14.7685C90.1991 11.3102 87.7664 8.8537 84.3559 8.8537C80.8023 8.8537 78.2742 11.501 78.2742 15.2216C78.2742 18.9422 80.8976 21.5897 84.5944 21.5897C85.93 21.5897 89.3882 21.1366 89.3882 19.2524C89.3882 18.5607 88.8397 17.9407 88.0287 17.9407C87.7187 17.9407 87.3371 18.036 86.9555 18.2507C86.24 18.68 85.5007 18.8231 84.5943 18.8231C83.0202 18.8231 81.8039 17.8215 81.3984 16.2949H88.7204ZM84.3559 11.6203C85.8108 11.6203 86.9078 12.622 87.1464 14.1246H81.3985C81.7802 12.5982 82.901 11.6203 84.3559 11.6203ZM104.676 10.3801C104.676 9.54535 103.984 8.8537 103.126 8.8537C102.339 8.8537 101.599 9.47379 101.599 10.3324V10.404C100.622 9.42612 99.286 8.85375 97.7357 8.85375C94.3729 8.85375 91.9879 11.5011 91.9879 15.2217C91.9879 18.9423 94.3729 21.5897 97.7357 21.5897C99.286 21.5897 100.622 21.0173 101.599 20.0394V20.8265C101.603 20.9454 101.652 21.0584 101.737 21.1425C101.821 21.2266 101.934 21.2756 102.053 21.2796H104.223C104.342 21.2756 104.455 21.2266 104.539 21.1425C104.623 21.0584 104.672 20.9454 104.676 20.8265L104.676 10.3801ZM101.671 15.2217C101.671 17.3443 100.288 18.823 98.3559 18.823C96.3763 18.823 94.993 17.3443 94.993 15.2217C94.993 13.099 96.3763 11.6204 98.3559 11.6204C100.288 11.6203 101.671 13.099 101.671 15.2217H101.671ZM61.6269 28.194C63.6065 28.194 64.9898 29.6727 64.9898 31.8431C64.9898 33.9657 63.6065 35.4444 61.6269 35.4444C59.6951 35.4444 58.3118 33.9657 58.3118 31.8431C58.3118 29.6727 59.695 28.194 61.6269 28.194ZM55.3066 41.4308C55.3066 42.2655 55.9983 42.9572 56.8569 42.9572C57.2609 42.9544 57.6475 42.7927 57.9332 42.507C58.2188 42.2214 58.3805 41.8347 58.3833 41.4308V36.6846C59.3612 37.6625 60.6968 38.2111 62.247 38.2111C65.6099 38.2111 67.9948 35.5637 67.9948 31.8431C67.9948 28.0748 65.3475 25.4275 61.6269 25.4275C57.9302 25.4275 55.3066 28.0748 55.3066 31.8431V41.4308ZM75.7699 25.4513C72.1446 25.4513 70.0459 27.6932 70.0459 30.913V37.4002C70.0499 37.5191 70.0989 37.632 70.183 37.7162C70.2672 37.8003 70.3801 37.8493 70.499 37.8533H72.6695C72.7884 37.8493 72.9014 37.8003 72.9855 37.7161C73.0696 37.632 73.1186 37.5191 73.1226 37.4002V30.9845C73.1226 29.315 74.005 28.1225 75.7699 28.1225H76.4854C76.8396 28.1225 77.1793 27.9818 77.4298 27.7313C77.6803 27.4808 77.821 27.1411 77.821 26.7869C77.821 26.4326 77.6803 26.0929 77.4298 25.8424C77.1793 25.592 76.8396 25.4513 76.4854 25.4513L75.7699 25.4513ZM85.1191 38.211C88.8397 38.211 91.487 35.5637 91.487 31.7954C91.487 28.0747 88.8397 25.4274 85.1191 25.4274C81.4223 25.4274 78.7989 28.0747 78.7989 31.7954C78.7989 35.5637 81.4223 38.211 85.1191 38.211ZM85.1191 35.4444C83.1873 35.4444 81.804 33.9657 81.804 31.7954C81.804 29.6727 83.1873 28.194 85.1191 28.194C87.0987 28.194 88.482 29.6727 88.482 31.7954C88.4819 33.9657 87.0985 35.4444 85.1191 35.4444ZM96.9725 36.8277L96.6385 37.5907C95.9706 39.1409 95.6845 39.9757 94.4681 39.9757H93.7528C93.3986 39.9757 93.0589 40.1164 92.8084 40.3669C92.5579 40.6173 92.4172 40.957 92.4172 41.3113C92.4172 41.6655 92.5579 42.0052 92.8084 42.2557C93.0589 42.5062 93.3986 42.6469 93.7528 42.6469H94.4683C97.6642 42.6469 98.3558 40.5958 99.7153 37.6622L104.342 27.6216C104.427 27.4387 104.475 27.2407 104.483 27.0391C104.49 26.8375 104.458 26.6364 104.387 26.4476C104.316 26.2588 104.208 26.0861 104.069 25.9396C103.93 25.7931 103.764 25.6758 103.579 25.5945C103.378 25.4994 103.158 25.4505 102.935 25.4513C102.363 25.4513 101.79 25.7854 101.552 26.3338L98.5229 33.1072L95.47 26.3337C95.3406 26.0704 95.1404 25.8484 94.8918 25.6925C94.6433 25.5366 94.3562 25.4531 94.0628 25.4513C93.8482 25.4531 93.6365 25.5019 93.4427 25.5942C93.2581 25.6756 93.0916 25.7929 92.9529 25.9394C92.8143 26.0859 92.7062 26.2586 92.6352 26.4474C92.5641 26.6362 92.5314 26.8373 92.5391 27.0389C92.5467 27.2404 92.5946 27.4385 92.6797 27.6213L96.9725 36.8277ZM115.981 32.8686C116.601 32.8686 117.46 32.5585 117.46 31.3422C117.46 27.8839 115.027 25.4274 111.616 25.4274C108.063 25.4274 105.535 28.0747 105.535 31.7953C105.535 35.5159 108.158 38.1632 111.855 38.1632C113.19 38.1632 116.649 37.71 116.649 35.8258C116.649 35.1342 116.1 34.5141 115.289 34.5141C114.979 34.5141 114.598 34.6095 114.216 34.8242C113.501 35.2535 112.761 35.3966 111.855 35.3966C110.281 35.3966 109.064 34.3949 108.659 32.8684L115.981 32.8686ZM111.616 28.194C113.071 28.194 114.168 29.1957 114.407 30.6982H108.659C109.041 29.1719 110.162 28.194 111.616 28.194ZM119.248 31.7953C119.248 35.5159 121.872 38.1632 125.569 38.1632C126.88 38.1632 130.005 37.7817 130.005 35.9452C130.005 35.2536 129.456 34.6335 128.645 34.6335C128.335 34.6335 127.954 34.7289 127.572 34.9435C126.976 35.3013 126.332 35.3967 125.569 35.3967C123.637 35.3967 122.253 33.918 122.253 31.7954C122.253 29.6727 123.637 28.194 125.569 28.194C126.308 28.194 126.928 28.2894 127.572 28.6472C127.954 28.8618 128.335 28.9572 128.645 28.9572C129.456 28.9572 130.005 28.3371 130.005 27.6455C130.005 25.809 126.881 25.4275 125.569 25.4275C121.872 25.4274 119.248 28.0747 119.248 31.7953ZM137.112 28.2178C137.466 28.2178 137.806 28.0771 138.056 27.8266C138.307 27.5762 138.448 27.2364 138.448 26.8822C138.448 26.528 138.307 26.1883 138.056 25.9378C137.806 25.6873 137.466 25.5466 137.112 25.5466H136.182V23.6864C136.179 23.2824 136.017 22.8958 135.732 22.6101C135.446 22.3245 135.06 22.1628 134.656 22.16C133.797 22.16 133.105 22.8516 133.105 23.6864V25.5467H132.175C131.821 25.5467 131.481 25.6874 131.231 25.9378C130.98 26.1883 130.84 26.528 130.84 26.8823C130.84 27.2365 130.98 27.5762 131.231 27.8267C131.481 28.0771 131.821 28.2179 132.175 28.2179H133.105V37.4002C133.109 37.5191 133.158 37.632 133.242 37.7162C133.327 37.8003 133.44 37.8493 133.558 37.8533H135.729C135.848 37.8493 135.961 37.8003 136.045 37.7162C136.129 37.632 136.178 37.5191 136.182 37.4002V28.2179L137.112 28.2178ZM145.96 38.211C149.681 38.211 152.328 35.5636 152.328 31.7953C152.328 28.0747 149.681 25.4274 145.96 25.4274C142.264 25.4274 139.64 28.0747 139.64 31.7953C139.64 35.5637 142.264 38.211 145.96 38.211L145.96 38.211ZM145.96 35.4444C144.029 35.4444 142.645 33.9657 142.645 31.7953C142.645 29.6727 144.029 28.194 145.96 28.194C147.94 28.194 149.323 29.6727 149.323 31.7953C149.323 33.9657 147.94 35.4444 145.96 35.4444L145.96 35.4444ZM158.338 25.4274C155.763 25.4274 154.189 26.8822 154.189 29.1718C154.189 33.3456 160.079 32.487 160.079 34.395C160.079 34.9197 159.531 35.4682 158.458 35.4682C157.671 35.4682 157.003 35.3728 156.311 35.0151C155.93 34.8243 155.548 34.705 155.238 34.705C154.427 34.705 153.879 35.3251 153.879 36.0167C153.879 37.9009 157.146 38.2348 158.458 38.2348C161.296 38.2348 163.108 36.7322 163.108 34.3234C163.108 29.9827 157.217 30.8413 157.217 29.1002C157.217 28.5517 157.647 28.1939 158.338 28.1939C159.002 28.188 159.657 28.3435 160.246 28.6471C160.604 28.8379 160.962 28.9571 161.272 28.9571C162.035 28.9571 162.56 28.3371 162.56 27.6454C162.56 25.8329 159.65 25.4274 158.338 25.4274V25.4274Z" fill="#040405"/>
</g>
<defs>
<clipPath id="clip0_1322_179">
<rect width="163.109" height="45" fill="white"/>
</clipPath>
</defs>
</svg>
