<svg width="232" height="45" viewBox="0 0 232 45" fill="none" xmlns="http://www.w3.org/2000/svg">
<path d="M77.5515 38.9763C83.185 38.9763 86.2078 35.7245 86.2078 30.4116C86.2078 26.1522 84.8336 23.4042 79.8873 20.198C76.086 17.725 74.895 16.5342 74.895 14.1525C74.895 12.0457 75.9485 10.9923 77.7346 10.9923C79.658 10.9923 80.5742 12.1373 80.5742 14.29V15.5723H85.9787V14.4279C85.9787 9.20658 83.2307 6.00066 77.6887 6.00066C72.1468 6.00066 69.2156 9.2068 69.2156 14.3363C69.2156 18.4126 70.727 21.1147 75.582 24.3208C79.3835 26.8398 80.4827 27.9849 80.4827 30.6872C80.4827 32.9314 79.2919 33.9849 77.5056 33.9849C75.5361 33.9849 74.5285 32.8399 74.5285 30.7331V28.9002H69.124V30.5491C69.1242 35.7245 71.9638 38.9763 77.5515 38.9763ZM94.1312 38.5173H99.8563V11.5428H105.856V6.45899H88.1773V11.5428H94.1314L94.1312 38.5173ZM108.833 38.5173H114.558V25.2362H116.528C119.184 25.2362 120.146 26.2438 120.146 29.2665V34.3047C120.146 37.1898 120.329 37.6487 120.65 38.5184H126.466C125.917 37.2359 125.825 36.0003 125.825 34.3506V29.6331C125.825 25.5568 124.772 23.1751 122.07 22.3966V22.2591C124.589 21.2515 125.78 19.1448 125.78 15.8011V14.1984C125.78 8.97708 123.123 6.45811 117.306 6.45811H108.833V38.5173ZM114.558 20.1512V11.5428H117.215C119.184 11.5428 120.054 12.5504 120.054 14.7946V16.6726C120.054 19.1915 118.909 20.1534 116.665 20.1534L114.558 20.1512ZM142.405 38.5173H148.222L142.268 6.4579H134.526L128.619 38.5184H133.978L134.939 32.4727H141.443L142.405 38.5173ZM135.764 27.5263L138.191 12.2748L140.619 27.5263H135.764ZM153.26 38.5184H158.984V11.5428H164.984V6.45899H147.306V11.5428H153.26L153.26 38.5184ZM176.023 38.9774C181.656 38.9774 184.725 35.7713 184.725 30.3211V14.6563C184.725 9.16024 181.656 6 176.023 6C170.435 6 167.366 9.16024 167.366 14.6563V30.32C167.366 35.7704 170.435 38.9763 176.023 38.9763V38.9774ZM176.023 33.8936C174.145 33.8936 173.092 32.7944 173.092 30.5958V14.3816C173.092 12.1373 174.145 11.0838 176.023 11.0838C177.9 11.0838 179 12.1373 179 14.3816V30.595C179 32.7933 177.9 33.8925 176.023 33.8925V33.8936ZM196.129 38.9774C201.763 38.9774 204.786 35.7256 204.786 30.4127C204.786 26.1533 203.412 23.4053 198.465 20.1991C194.664 17.725 193.473 16.5342 193.473 14.1525C193.473 12.0457 194.527 10.9923 196.313 10.9923C198.236 10.9923 199.153 12.1373 199.153 14.29V15.5723H204.557V14.4279C204.557 9.20658 201.809 6.00066 196.267 6.00066C190.725 6.00066 187.794 9.2068 187.794 14.3363C187.794 18.4126 189.305 21.1147 194.16 24.3208C197.962 26.8398 199.061 27.9849 199.061 30.6872C199.061 32.9314 197.87 33.9849 196.084 33.9849C194.115 33.9849 193.107 32.8399 193.107 30.7331V28.9002H187.702V30.5491C187.702 35.7245 190.541 38.9763 196.129 38.9763L196.129 38.9774Z" fill="black"/>
<path d="M27 6V14.2502H46.2498V17.0003H27V39H54.4815V30.7505H40.7498V33.5006H46.2499V36.2507H35.2508V28.0005H54.4815V25.2504H35.2504V19.7504H54.4815V11.5009H35.2504V8.75084H54.4815V6H27Z" fill="black"/>
</svg>
