<svg width="195" height="33" viewBox="0 0 195 33" fill="none" xmlns="http://www.w3.org/2000/svg">
<path d="M40.9203 32.6376C33.8542 32.6376 29.7206 28.6794 29.7206 22.3168V22.2875C29.7206 15.9249 33.8542 11.9961 40.9203 11.9961H50.0387C57.1048 11.9961 61.2384 15.9249 61.2384 22.2875V22.3168C61.2384 28.6794 57.1048 32.6376 50.0387 32.6376H40.9203ZM35.2903 22.2875V22.3168C35.2903 25.5128 37.1376 27.5357 40.9198 27.5357H50.0381C53.8206 27.5357 55.6676 25.5125 55.6676 22.3168V22.2875C55.6676 19.1209 53.8203 17.0977 50.0381 17.0977H40.9203C37.1373 17.0977 35.2903 19.1209 35.2903 22.2875ZM125.1 32.4617V12.172H142.281C149.347 12.172 153.364 15.9542 153.364 22.3168V22.3462C153.364 28.6794 149.347 32.4617 142.281 32.4617H125.1ZM130.816 27.3293H142.28C146.062 27.3293 147.792 25.4821 147.792 22.3451V22.3157C147.792 19.1502 146.062 17.3027 142.28 17.3027H130.816V27.3293ZM96.9799 32.4617V12.172H121.139V17.0686H102.551V19.9127H119.087V24.721H102.551V27.5357H121.14V32.4617H96.9799ZM87.1284 32.4617L70.2987 19.9127V32.4617H64.6693V12.172H69.8884L86.7181 24.721V12.172H92.3769V32.4617H87.1284ZM0.897461 32.4617V27.7117L16.3198 17.9188L18.0204 16.8924H0.956113V12.172H26.9338V16.8921L11.5106 26.7149L9.83934 27.7117H27.1978V32.4617H0.897461Z" fill="black"/>
<path d="M189.155 18.5368V12.2012H194.8V20.1414L189.155 18.5368Z" fill="black"/>
<path d="M172.732 24.5215V32.4617H167.181V24.5215H172.732Z" fill="black"/>
<path d="M156.794 12.209H162.547V32.4622H156.794V12.209Z" fill="black"/>
<path d="M167.181 12.1719V16.6323L194.8 26.4872V20.0304L172.664 12.1719H167.181Z" fill="black"/>
<path d="M194.801 32.4618V28.0014L173.319 20.3365L167.182 18.1465V24.6033L189.317 32.4618H194.801Z" fill="black"/>
<path d="M182.081 9.9887H180.191C180.547 8.88716 181.112 6.77453 180.889 4.99822C180.072 5.08769 179.283 5.34596 178.571 5.75673C177.015 6.61752 175.42 8.15876 174.194 9.9887H172.056C172.759 8.77291 173.605 7.64596 174.576 6.63212C175.481 5.66787 176.522 4.84218 177.667 4.18161C178.452 3.73024 179.31 3.41944 180.202 3.26327C179.826 2.81577 179.324 2.49206 178.761 2.33456C178.357 2.21858 177.938 2.16073 177.518 2.1626C175.329 2.1626 173.114 3.57962 171.641 4.7683C169.828 6.23933 168.275 8.00378 167.045 9.98815H164.984C165.609 8.79899 166.356 7.67814 167.213 6.64385C168.135 5.50822 169.163 4.46356 170.283 3.52415C172.783 1.45514 175.295 0.361366 177.545 0.361366C178.135 0.359313 178.722 0.439862 179.29 0.600703C179.924 0.767489 180.512 1.07414 181.012 1.49804C181.511 1.92195 181.91 2.45236 182.177 3.05039C182.198 3.09341 182.217 3.13754 182.233 3.18254C182.25 3.22819 182.268 3.27293 182.289 3.31659C182.435 3.33666 182.577 3.37212 182.715 3.42242C183.694 3.74636 184.553 4.35752 185.179 5.17619C185.855 6.10315 186.292 7.18187 186.452 8.31757C186.549 8.86934 186.602 9.42803 186.61 9.98815H184.784C184.743 8.39617 184.348 6.30752 182.701 5.38948C182.751 6.94607 182.541 8.50019 182.081 9.98815V9.9887Z" fill="black"/>
</svg>
