<svg width="289" height="54" viewBox="0 0 289 54" fill="none" xmlns="http://www.w3.org/2000/svg">
<path d="M32.5699 26.5169C32.6908 22.5762 34.3103 18.8299 37.0981 16.042C39.886 13.2542 43.6323 11.6347 47.573 11.5139C49.686 11.4549 51.7887 11.8277 53.7526 12.6093C55.7165 13.3908 57.5003 14.5648 58.9949 16.0595C60.4895 17.5541 61.6635 19.338 62.445 21.302C63.2265 23.2659 63.5991 25.3687 63.5401 27.4816C63.4187 31.4222 61.7991 35.1682 59.0113 37.956C56.2235 40.7437 52.4776 42.3633 48.5369 42.4847C48.3756 42.4893 48.2131 42.4918 48.0528 42.4918C45.9796 42.4858 43.9285 42.0648 42.0205 41.2537C40.1125 40.4425 38.3862 39.2575 36.9433 37.7688C35.5004 36.28 34.37 34.5174 33.6189 32.585C32.8678 30.6526 32.5112 28.5894 32.5699 26.5169ZM37.3894 27.0129C37.4196 29.829 38.5518 32.5212 40.5432 34.5126C42.5346 36.504 45.2268 37.636 48.0429 37.6663C50.8719 37.6661 53.585 36.5423 55.5855 34.5419C57.586 32.5415 58.71 29.8283 58.7103 26.9993C58.6804 24.183 57.5484 21.4905 55.5569 19.4989C53.5655 17.5072 50.8731 16.375 48.0568 16.3448C46.6557 16.3447 45.2684 16.6205 43.9739 17.1566C42.6795 17.6927 41.5033 18.4786 40.5126 19.4692C39.5218 20.4599 38.7359 21.636 38.1997 22.9304C37.6636 24.2248 37.3876 25.6122 37.3876 27.0132L37.3894 27.0129ZM233.27 27.232C233.247 25.1608 233.638 23.1061 234.421 21.1885C235.204 19.2709 236.362 17.5291 237.828 16.0657C239.294 14.6024 241.038 13.4471 242.957 12.6676C244.876 11.8882 246.931 11.5004 249.002 11.5271C251.089 11.5557 253.148 12.0073 255.055 12.8545C256.962 13.7017 258.677 14.9271 260.097 16.4562C260.285 16.6541 260.388 16.918 260.382 17.1909C260.377 17.4639 260.265 17.7239 260.069 17.9145L258.17 19.8126C258.068 19.9129 257.947 19.9915 257.815 20.0439C257.682 20.0964 257.54 20.1216 257.397 20.1179C257.254 20.1141 257.114 20.0817 256.984 20.0223C256.854 19.963 256.738 19.878 256.642 19.7725C255.637 18.6715 254.412 17.794 253.046 17.1965C251.68 16.599 250.204 16.2949 248.714 16.304C245.872 16.3454 243.162 17.5066 241.173 19.5351C239.183 21.5637 238.074 24.2956 238.087 27.1372C238.126 29.9453 239.268 32.6254 241.266 34.5983C243.265 36.5713 245.96 37.6783 248.768 37.6802C250.25 37.6825 251.716 37.375 253.072 36.7774C254.428 36.1799 255.643 35.3055 256.642 34.2103C256.737 34.1058 256.853 34.0219 256.982 33.9637C257.112 33.9055 257.251 33.8742 257.393 33.8718C257.535 33.8694 257.675 33.8958 257.806 33.9495C257.938 34.0033 258.056 34.0833 258.156 34.1845L260.055 36.0826C260.248 36.2751 260.358 36.5346 260.363 36.8067C260.368 37.0788 260.268 37.3425 260.083 37.5422C258.635 39.0987 256.882 40.3398 254.933 41.188C252.983 42.0361 250.88 42.4728 248.754 42.4711C244.69 42.4696 240.79 40.8713 237.893 38.0208C234.996 35.1703 233.335 31.2958 233.269 27.2323L233.27 27.232ZM166.896 41.7543C166.738 41.755 166.584 41.7114 166.45 41.6286C166.316 41.5458 166.209 41.4271 166.139 41.2859L155.155 18.9604C155.106 18.8605 155.024 18.7803 154.923 18.7327C154.822 18.6852 154.708 18.6732 154.6 18.6988C154.491 18.7243 154.394 18.7859 154.325 18.8734C154.256 18.9609 154.219 19.0692 154.219 19.1807V40.6936C154.219 40.831 154.192 40.9672 154.14 41.0942C154.087 41.2212 154.01 41.3366 153.913 41.4337C153.816 41.5309 153.701 41.608 153.574 41.6605C153.447 41.7131 153.311 41.7401 153.173 41.74H150.613C150.475 41.7402 150.339 41.7132 150.212 41.6607C150.085 41.6082 149.97 41.5311 149.873 41.4339C149.776 41.3367 149.699 41.2212 149.646 41.0942C149.594 40.9672 149.567 40.831 149.567 40.6936V13.3163C149.567 13.1789 149.594 13.043 149.646 12.916C149.699 12.7891 149.776 12.6738 149.873 12.5767C149.97 12.4795 150.086 12.4026 150.213 12.35C150.34 12.2975 150.476 12.2706 150.613 12.2707H156.766C156.857 12.2706 156.947 12.2964 157.025 12.345C157.103 12.3936 157.166 12.4631 157.206 12.5456L162.519 23.338L171.328 41.2441C171.354 41.2981 171.365 41.3577 171.362 41.4174C171.359 41.477 171.34 41.5348 171.309 41.5856C171.277 41.6363 171.234 41.6785 171.182 41.7079C171.13 41.7374 171.071 41.7533 171.011 41.7543H166.896ZM285.394 41.74C285.256 41.7401 285.12 41.7131 284.993 41.6605C284.866 41.608 284.751 41.5309 284.654 41.4337C284.557 41.3366 284.479 41.2212 284.427 41.0942C284.374 40.9672 284.347 40.831 284.348 40.6936V29.8345C284.348 29.7693 284.335 29.7049 284.31 29.6447C284.286 29.5844 284.249 29.5297 284.203 29.4836C284.157 29.4375 284.102 29.401 284.042 29.3762C283.982 29.3514 283.917 29.3388 283.852 29.3391H270.116C270.051 29.3388 269.986 29.3514 269.926 29.3762C269.866 29.401 269.811 29.4375 269.765 29.4836C269.719 29.5297 269.682 29.5844 269.658 29.6447C269.633 29.7049 269.62 29.7693 269.62 29.8345V40.6936C269.621 40.831 269.594 40.9672 269.541 41.0942C269.489 41.2212 269.412 41.3366 269.314 41.4337C269.217 41.5309 269.102 41.608 268.975 41.6605C268.848 41.7131 268.712 41.7401 268.574 41.74H266.014C265.877 41.7401 265.741 41.7131 265.614 41.6605C265.487 41.608 265.372 41.5309 265.274 41.4337C265.177 41.3366 265.1 41.2212 265.048 41.0942C264.995 40.9672 264.968 40.831 264.968 40.6936V13.3163C264.968 13.1789 264.996 13.0429 265.048 12.916C265.101 12.7892 265.178 12.6739 265.275 12.5768C265.372 12.4797 265.487 12.4027 265.614 12.3502C265.741 12.2977 265.877 12.2707 266.014 12.2707H268.574C268.712 12.2707 268.848 12.2977 268.975 12.3502C269.102 12.4027 269.217 12.4797 269.314 12.5768C269.411 12.6739 269.488 12.7892 269.541 12.916C269.593 13.0429 269.62 13.1789 269.62 13.3163V24.1769C269.62 24.2421 269.633 24.3067 269.658 24.3669C269.682 24.4272 269.719 24.4819 269.765 24.528C269.811 24.5741 269.866 24.6107 269.926 24.6356C269.986 24.6605 270.051 24.6732 270.116 24.673H283.853C283.918 24.6731 283.983 24.6605 284.043 24.6356C284.103 24.6107 284.158 24.5741 284.204 24.528C284.25 24.4819 284.286 24.427 284.311 24.3668C284.336 24.3065 284.349 24.2421 284.348 24.1769V13.3163C284.348 13.1789 284.375 13.0429 284.428 12.916C284.481 12.7892 284.558 12.6739 284.655 12.5768C284.752 12.4797 284.867 12.4027 284.994 12.3502C285.121 12.2977 285.257 12.2707 285.394 12.2707H287.953C288.091 12.2706 288.227 12.2976 288.354 12.35C288.481 12.4025 288.596 12.4795 288.693 12.5767C288.791 12.6738 288.868 12.7889 288.92 12.9159C288.973 13.0428 289 13.1789 289 13.3163V40.6936C289 40.8311 288.973 40.9673 288.921 41.0943C288.868 41.2214 288.791 41.3367 288.694 41.4339C288.596 41.5311 288.481 41.6082 288.354 41.6607C288.227 41.7132 288.091 41.7402 287.953 41.74H285.394ZM207.377 41.74C207.239 41.7401 207.103 41.7131 206.976 41.6605C206.849 41.608 206.734 41.5309 206.637 41.4337C206.54 41.3366 206.463 41.2212 206.41 41.0942C206.358 40.9672 206.331 40.831 206.331 40.6936V38.1343C206.331 37.9969 206.358 37.8609 206.41 37.7339C206.463 37.607 206.54 37.4917 206.637 37.3945C206.734 37.2974 206.849 37.2204 206.976 37.1679C207.103 37.1154 207.239 37.0886 207.377 37.0888H228.039C228.176 37.0886 228.312 37.1154 228.439 37.1679C228.566 37.2204 228.681 37.2974 228.779 37.3945C228.876 37.4917 228.953 37.607 229.005 37.7339C229.058 37.8609 229.085 37.9969 229.085 38.1343V40.6936C229.085 40.831 229.058 40.9672 229.005 41.0942C228.953 41.2212 228.876 41.3366 228.779 41.4337C228.681 41.5309 228.566 41.608 228.439 41.6605C228.312 41.7131 228.176 41.7401 228.039 41.74H207.377ZM188.823 41.74C188.685 41.7402 188.549 41.7132 188.422 41.6607C188.295 41.6082 188.18 41.5311 188.083 41.4339C187.986 41.3367 187.909 41.2212 187.856 41.0942C187.804 40.9672 187.777 40.831 187.777 40.6936V17.4325C187.777 17.3674 187.765 17.3028 187.74 17.2425C187.715 17.1823 187.679 17.1275 187.633 17.0815C187.587 17.0354 187.532 16.9991 187.471 16.9744C187.411 16.9497 187.347 16.9372 187.281 16.9377H179.134C178.996 16.9377 178.86 16.9106 178.733 16.858C178.606 16.8054 178.491 16.7282 178.394 16.631C178.297 16.5338 178.22 16.4185 178.167 16.2915C178.115 16.1645 178.088 16.0285 178.088 15.8911V13.3299C178.088 13.1925 178.115 13.0565 178.167 12.9296C178.22 12.8028 178.297 12.6875 178.394 12.5904C178.491 12.4934 178.606 12.4164 178.733 12.364C178.86 12.3116 178.996 12.2848 179.134 12.285H201.089C201.226 12.2848 201.362 12.3116 201.489 12.364C201.616 12.4164 201.732 12.4934 201.829 12.5904C201.926 12.6875 202.003 12.8028 202.055 12.9296C202.108 13.0565 202.135 13.1925 202.135 13.3299V15.8911C202.135 16.0285 202.108 16.1645 202.056 16.2915C202.003 16.4185 201.926 16.5338 201.829 16.631C201.732 16.7282 201.616 16.8054 201.489 16.858C201.362 16.9106 201.226 16.9377 201.089 16.9377H192.939C192.874 16.9372 192.809 16.9497 192.749 16.9744C192.689 16.9991 192.634 17.0354 192.588 17.0815C192.542 17.1275 192.505 17.1823 192.481 17.2425C192.456 17.3028 192.443 17.3674 192.444 17.4325V40.6933C192.438 40.9715 192.325 41.2368 192.127 41.4323C191.929 41.6279 191.662 41.7381 191.384 41.7397L188.823 41.74ZM123.649 41.74C123.511 41.7402 123.375 41.7132 123.248 41.6607C123.121 41.6082 123.006 41.5311 122.909 41.4339C122.811 41.3367 122.734 41.2212 122.682 41.0942C122.629 40.9672 122.602 40.831 122.603 40.6936V38.1343C122.602 37.9969 122.629 37.8609 122.682 37.7339C122.734 37.607 122.812 37.4917 122.909 37.3945C123.006 37.2974 123.121 37.2204 123.248 37.1679C123.375 37.1154 123.511 37.0886 123.649 37.0888H144.309C144.446 37.0886 144.583 37.1154 144.709 37.1679C144.836 37.2204 144.952 37.2974 145.049 37.3945C145.146 37.4917 145.223 37.607 145.276 37.7339C145.328 37.8609 145.355 37.9969 145.355 38.1343V40.6936C145.355 40.831 145.328 40.9672 145.276 41.0942C145.223 41.2212 145.146 41.3367 145.049 41.4339C144.952 41.5311 144.837 41.6082 144.71 41.6607C144.583 41.7132 144.446 41.7402 144.309 41.74H123.649ZM105.439 41.7268H101.762C101.556 41.7235 101.355 41.6607 101.184 41.5458C101.013 41.431 100.879 41.269 100.798 41.0795L98.6228 35.9599C98.5539 35.7919 98.5539 35.6034 98.6228 35.4354L100.715 30.385C100.741 30.321 100.786 30.2663 100.844 30.2278C100.901 30.1892 100.969 30.1687 101.038 30.1687C101.108 30.1687 101.175 30.1892 101.233 30.2278C101.291 30.2663 101.336 30.321 101.362 30.385L103.564 35.6979L103.537 35.7671C106.702 28.156 109.868 20.5352 113.033 12.9047C113.115 12.7135 113.252 12.5505 113.425 12.4355C113.599 12.3204 113.802 12.2584 114.01 12.2571H116.79C116.964 12.2568 117.135 12.2992 117.288 12.3809C117.441 12.4626 117.572 12.5808 117.669 12.7252C117.766 12.8695 117.825 13.0355 117.842 13.2084C117.859 13.3812 117.834 13.5557 117.767 13.7161L106.412 41.0935C106.33 41.2846 106.193 41.4476 106.02 41.5626C105.846 41.6775 105.643 41.7394 105.435 41.7407L105.439 41.7268ZM68.8108 41.74C68.6733 41.7401 68.5372 41.7131 68.4103 41.6605C68.2833 41.608 68.1679 41.5309 68.0708 41.4337C67.9736 41.3366 67.8966 41.2212 67.8441 41.0942C67.7916 40.9672 67.7646 40.831 67.7648 40.6936V13.3163C67.7648 13.1789 67.7918 13.0429 67.8444 12.916C67.897 12.7892 67.974 12.6739 68.0711 12.5768C68.1683 12.4797 68.2836 12.4027 68.4105 12.3502C68.5374 12.2977 68.6734 12.2707 68.8108 12.2707H71.3715C71.5088 12.2707 71.6448 12.2977 71.7717 12.3502C71.8987 12.4027 72.014 12.4797 72.1111 12.5768C72.2082 12.6739 72.2853 12.7892 72.3379 12.916C72.3904 13.0429 72.4175 13.1789 72.4175 13.3163V36.5793C72.4173 36.6443 72.43 36.7088 72.4548 36.7689C72.4796 36.829 72.5161 36.8837 72.5621 36.9296C72.6082 36.9756 72.6628 37.0119 72.723 37.0367C72.7831 37.0614 72.8476 37.0741 72.9126 37.0738H88.1635C88.301 37.0738 88.4371 37.1008 88.5641 37.1534C88.691 37.2061 88.8064 37.2832 88.9035 37.3804C89.0007 37.4776 89.0777 37.5931 89.1302 37.7201C89.1827 37.8472 89.2097 37.9833 89.2095 38.1207V40.6936C89.2097 40.831 89.1828 40.9672 89.1303 41.0942C89.0778 41.2212 89.0008 41.3367 88.9036 41.4339C88.8064 41.5311 88.6911 41.6082 88.5641 41.6607C88.4371 41.7132 88.301 41.7402 88.1635 41.74H68.8108ZM1.04928 41.74C0.911793 41.7402 0.775606 41.7134 0.64853 41.6609C0.521454 41.6084 0.405988 41.5313 0.308749 41.4341C0.211511 41.3369 0.134412 41.2214 0.0818719 41.0943C0.0293319 40.9673 0.00238365 40.8311 0.00257175 40.6936V38.5741C0.00266546 38.4368 0.0298164 38.3009 0.0824738 38.1741C0.135131 38.0472 0.212263 37.9319 0.309464 37.8348C0.406665 37.7378 0.522031 37.6608 0.648971 37.6084C0.775911 37.556 0.911939 37.5291 1.04928 37.5293H21.0354C22.1449 37.5335 23.2122 37.1039 24.0094 36.3322C24.8067 35.5606 25.2709 34.508 25.3029 33.3989C25.3098 32.8431 25.2063 32.2913 24.9985 31.7758C24.7906 31.2603 24.4826 30.7912 24.0921 30.3956C23.7016 30 23.2366 29.6859 22.7238 29.4714C22.211 29.2569 21.6608 29.1463 21.105 29.146H8.51015C6.30785 29.1559 4.18821 28.3079 2.60029 26.7819C1.01237 25.2559 0.0809204 23.1717 0.00328574 20.9708C-0.0281364 19.846 0.16608 18.7261 0.574472 17.6776C0.982864 16.6291 1.59716 15.673 2.3811 14.8658C3.16503 14.0585 4.10273 13.4165 5.13885 12.9776C6.17497 12.5387 7.28852 12.3118 8.41376 12.3103H28.4548C28.7324 12.3105 28.9985 12.4209 29.1946 12.6173C29.3908 12.8136 29.5009 13.0799 29.5008 13.3574V15.4772C29.5009 15.6147 29.4739 15.7507 29.4213 15.8776C29.3688 16.0046 29.2917 16.12 29.1946 16.2172C29.0975 16.3144 28.9822 16.3915 28.8552 16.4442C28.7283 16.4968 28.5922 16.524 28.4548 16.524H8.48266C7.92172 16.522 7.36592 16.631 6.84729 16.8447C6.32866 17.0585 5.85744 17.3727 5.46077 17.7693C5.0641 18.1659 4.74983 18.6372 4.53604 19.1558C4.32226 19.6744 4.21319 20.2301 4.21513 20.7911C4.237 21.89 4.68902 22.9366 5.47407 23.7059C6.25913 24.4752 7.31461 24.906 8.41376 24.9056H21.1046C22.2297 24.9067 23.3431 25.1332 24.3792 25.5718C25.4152 26.0104 26.3529 26.6521 27.1369 27.4591C27.9208 28.2661 28.5351 29.2218 28.9435 30.2701C29.352 31.3184 29.5462 32.4381 29.5147 33.5627C29.4373 35.7638 28.5059 37.848 26.9179 39.374C25.33 40.9001 23.2102 41.748 21.0079 41.7379L1.04928 41.74ZM99.4435 38.527L99.4368 38.546C99.4375 38.5394 99.4401 38.533 99.4443 38.5277L99.4435 38.527ZM99.4507 38.5049C99.4499 38.5128 99.4475 38.5201 99.4435 38.527L99.4507 38.5049ZM173.2 34.4999L169.345 26.6681C169.245 26.457 169.194 26.2268 169.193 25.9936V13.3159C169.196 13.0371 169.309 12.7707 169.508 12.5749C169.706 12.3791 169.974 12.2697 170.253 12.2704H172.813C172.95 12.2703 173.086 12.2973 173.213 12.3499C173.34 12.4024 173.455 12.4794 173.552 12.5765C173.649 12.6736 173.727 12.7888 173.779 12.9157C173.832 13.0426 173.859 13.1786 173.859 13.3159V34.3477C173.86 34.3938 173.851 34.4396 173.834 34.4824C173.817 34.5252 173.791 34.564 173.759 34.5966C173.726 34.6292 173.687 34.6549 173.645 34.6721C173.602 34.6893 173.556 34.6978 173.51 34.6968C173.445 34.6965 173.382 34.6779 173.327 34.6431C173.273 34.6084 173.229 34.559 173.201 34.5006L173.2 34.4999ZM96.5886 31.0859L89.4177 13.728C89.3532 13.5675 89.329 13.3936 89.347 13.2216C89.365 13.0496 89.4248 12.8847 89.5211 12.741C89.6174 12.5974 89.7473 12.4793 89.8996 12.3973C90.0518 12.3153 90.2218 12.2718 90.3948 12.2704H93.1761C93.3835 12.2671 93.587 12.3272 93.7592 12.4428C93.9315 12.5583 94.0644 12.7238 94.14 12.9169C95.8472 17.0613 97.5672 21.2316 99.2879 25.3881C99.3291 25.5035 99.3291 25.6297 99.2879 25.7451L97.2373 31.072C97.2143 31.139 97.171 31.1972 97.1134 31.2384C97.0559 31.2797 96.9869 31.302 96.916 31.3022C96.8461 31.3031 96.7776 31.283 96.7192 31.2445C96.6608 31.2061 96.6152 31.1511 96.5883 31.0866L96.5886 31.0859ZM207.378 29.3248C207.24 29.3248 207.104 29.2977 206.977 29.2451C206.85 29.1926 206.735 29.1155 206.638 29.0184C206.541 28.9212 206.464 28.8058 206.411 28.6788C206.359 28.5518 206.332 28.4158 206.332 28.2784V25.7174C206.332 25.5801 206.359 25.4441 206.411 25.3173C206.464 25.1905 206.541 25.0753 206.638 24.9783C206.735 24.8813 206.851 24.8042 206.978 24.7518C207.105 24.6994 207.241 24.6725 207.378 24.6727H228.039C228.176 24.6725 228.312 24.6994 228.439 24.7518C228.566 24.8042 228.681 24.8813 228.778 24.9783C228.875 25.0753 228.952 25.1905 229.005 25.3173C229.058 25.4441 229.085 25.5801 229.085 25.7174V28.2784C229.085 28.4158 229.058 28.5518 229.005 28.6788C228.953 28.8058 228.876 28.9212 228.778 29.0184C228.681 29.1155 228.566 29.1926 228.439 29.2451C228.312 29.2977 228.176 29.3248 228.039 29.3248H207.378ZM123.649 29.3248C123.512 29.3249 123.376 29.2979 123.249 29.2453C123.122 29.1928 123.007 29.1157 122.909 29.0185C122.812 28.9213 122.735 28.806 122.683 28.679C122.63 28.552 122.603 28.4158 122.603 28.2784V25.7174C122.603 25.5801 122.63 25.4441 122.683 25.3173C122.736 25.1905 122.813 25.0753 122.91 24.9783C123.007 24.8813 123.122 24.8042 123.249 24.7518C123.376 24.6994 123.512 24.6725 123.649 24.6727H144.31C144.447 24.6725 144.583 24.6994 144.71 24.7518C144.837 24.8042 144.952 24.8813 145.049 24.9783C145.146 25.0753 145.224 25.1905 145.276 25.3173C145.329 25.4441 145.356 25.5801 145.356 25.7174V28.2784C145.356 28.4158 145.329 28.552 145.276 28.679C145.224 28.806 145.147 28.9213 145.05 29.0185C144.953 29.1157 144.837 29.1928 144.71 29.2453C144.583 29.2979 144.447 29.3249 144.31 29.3248H123.649ZM206.332 15.8771V13.3159C206.332 13.1786 206.359 13.0426 206.411 12.9157C206.464 12.7888 206.541 12.6736 206.638 12.5765C206.735 12.4794 206.851 12.4024 206.978 12.3499C207.104 12.2973 207.24 12.2703 207.378 12.2704H228.039C228.176 12.2703 228.312 12.2973 228.439 12.3499C228.566 12.4024 228.681 12.4794 228.778 12.5765C228.875 12.6736 228.952 12.7888 229.005 12.9157C229.058 13.0426 229.085 13.1786 229.085 13.3159V15.8771C229.085 16.0145 229.058 16.1505 229.005 16.2774C228.952 16.4042 228.875 16.5195 228.778 16.6166C228.681 16.7137 228.566 16.7907 228.439 16.8432C228.312 16.8957 228.176 16.9227 228.039 16.9227H207.352C207.216 16.9216 207.082 16.8937 206.957 16.8406C206.832 16.7874 206.719 16.7101 206.624 16.6129C206.529 16.5158 206.454 16.4007 206.404 16.2746C206.354 16.1484 206.329 16.0136 206.331 15.8778L206.332 15.8771ZM122.603 15.8771V13.3159C122.603 13.1786 122.63 13.0426 122.683 12.9157C122.735 12.7888 122.812 12.6734 122.91 12.5763C123.007 12.4792 123.122 12.4022 123.249 12.3497C123.376 12.2972 123.512 12.2703 123.649 12.2704H144.31C144.447 12.2703 144.583 12.2972 144.71 12.3497C144.837 12.4022 144.952 12.4792 145.049 12.5763C145.147 12.6734 145.224 12.7888 145.276 12.9157C145.329 13.0426 145.356 13.1786 145.356 13.3159V15.8771C145.356 16.0145 145.329 16.1504 145.276 16.2774C145.224 16.4043 145.147 16.5196 145.049 16.6167C144.952 16.7139 144.837 16.7908 144.71 16.8434C144.583 16.8959 144.447 16.9228 144.31 16.9227H123.624C123.488 16.9217 123.354 16.8939 123.229 16.8407C123.104 16.7876 122.99 16.7102 122.895 16.6131C122.801 16.5159 122.726 16.4009 122.676 16.2747C122.625 16.1485 122.601 16.0136 122.603 15.8778L122.603 15.8771Z" fill="black"/>
</svg>
