<svg width="289" height="31" viewBox="0 0 289 31" fill="none" xmlns="http://www.w3.org/2000/svg">
<path d="M32.5699 15.0091C32.6908 11.0683 34.3103 7.32208 37.0981 4.53422C39.886 1.74635 43.6323 0.126899 47.573 0.00604471C49.686 -0.0529053 51.7887 0.31984 53.7526 1.10144C55.7165 1.88304 57.5003 3.05698 58.9949 4.55165C60.4895 6.04631 61.6635 7.83021 62.445 9.79416C63.2265 11.7581 63.5991 13.8609 63.5401 15.9738C63.4187 19.9144 61.7991 23.6604 59.0113 26.4482C56.2235 29.2359 52.4776 30.8555 48.5369 30.9769C48.3756 30.9815 48.2131 30.984 48.0528 30.984C45.9796 30.9779 43.9285 30.557 42.0205 29.7459C40.1125 28.9347 38.3862 27.7497 36.9433 26.261C35.5004 24.7722 34.37 23.0096 33.6189 21.0772C32.8678 19.1448 32.5112 17.0816 32.5699 15.0091ZM37.3894 15.5051C37.4196 18.3211 38.5518 21.0134 40.5432 23.0048C42.5346 24.9962 45.2268 26.1282 48.0429 26.1585C50.8719 26.1583 53.585 25.0345 55.5855 23.034C57.586 21.0336 58.71 18.3205 58.7103 15.4915C58.6804 12.6752 57.5484 9.98269 55.5569 7.99105C53.5655 5.99941 50.8731 4.86718 48.0568 4.837C46.6557 4.83691 45.2684 5.11268 43.9739 5.64878C42.6795 6.18488 41.5033 6.97075 40.5126 7.96141C39.5218 8.95208 38.7359 10.1282 38.1997 11.4226C37.6636 12.717 37.3876 14.1043 37.3876 15.5054L37.3894 15.5051ZM233.27 15.7242C233.247 13.653 233.638 11.5983 234.421 9.68068C235.204 7.76304 236.362 6.02125 237.828 4.55792C239.294 3.0946 241.038 1.93929 242.957 1.15983C244.876 0.380381 246.931 -0.00739843 249.003 0.0192926C251.089 0.0479335 253.148 0.49948 255.055 1.3467C256.962 2.19392 258.677 3.41924 260.097 4.94839C260.285 5.14626 260.388 5.41017 260.382 5.68312C260.377 5.95607 260.265 6.21606 260.069 6.4067L258.17 8.30481C258.068 8.40508 257.947 8.48368 257.815 8.53613C257.682 8.58858 257.54 8.61377 257.397 8.61004C257.254 8.60631 257.114 8.57384 256.984 8.51451C256.854 8.45519 256.738 8.37016 256.642 8.26472C255.637 7.16372 254.412 6.28621 253.046 5.6887C251.68 5.09119 250.204 4.78707 248.714 4.79621C245.872 4.83757 243.162 5.99877 241.173 8.02731C239.183 10.0558 238.074 12.7878 238.087 15.6293C238.126 18.4375 239.268 21.1176 241.266 23.0905C243.265 25.0634 245.96 26.1705 248.768 26.1724C250.25 26.1747 251.716 25.8672 253.072 25.2696C254.428 24.6721 255.643 23.7977 256.642 22.7025C256.737 22.598 256.853 22.5141 256.982 22.4559C257.112 22.3976 257.251 22.3664 257.393 22.364C257.535 22.3616 257.675 22.3879 257.806 22.4417C257.938 22.4955 258.056 22.5755 258.156 22.6767L260.055 24.5748C260.248 24.7673 260.358 25.0268 260.363 25.2989C260.368 25.571 260.268 25.8347 260.083 26.0344C258.635 27.5909 256.882 28.832 254.933 29.6801C252.983 30.5283 250.88 30.965 248.754 30.9633C244.69 30.9618 240.79 29.3635 237.893 26.513C234.996 23.6625 233.335 19.788 233.269 15.7245L233.27 15.7242ZM166.896 30.2465C166.738 30.2472 166.584 30.2036 166.45 30.1208C166.316 30.038 166.209 29.9193 166.139 29.7781L155.155 7.45259C155.106 7.35264 155.024 7.27246 154.923 7.22494C154.822 7.17741 154.708 7.1654 154.6 7.19094C154.491 7.21649 154.394 7.27809 154.325 7.36561C154.256 7.45313 154.219 7.56144 154.219 7.67292V29.1858C154.219 29.3232 154.192 29.4594 154.14 29.5864C154.087 29.7134 154.01 29.8287 153.913 29.9259C153.816 30.0231 153.701 30.1002 153.574 30.1527C153.447 30.2053 153.311 30.2323 153.173 30.2322H150.613C150.475 30.2323 150.339 30.2054 150.212 30.1529C150.085 30.1003 149.97 30.0233 149.873 29.9261C149.776 29.8289 149.699 29.7134 149.646 29.5864C149.594 29.4594 149.567 29.3232 149.567 29.1858V1.80846C149.567 1.6711 149.594 1.53514 149.646 1.40823C149.699 1.28132 149.776 1.16595 149.873 1.06884C149.97 0.97173 150.086 0.894743 150.213 0.842232C150.34 0.789721 150.476 0.762825 150.613 0.762919H156.766C156.857 0.762827 156.947 0.788567 157.025 0.837177C157.103 0.885787 157.166 0.955312 157.206 1.03781L162.519 11.8302L171.328 29.7363C171.354 29.7902 171.365 29.8499 171.362 29.9095C171.359 29.9692 171.34 30.027 171.309 30.0778C171.277 30.1285 171.234 30.1707 171.182 30.2001C171.13 30.2296 171.071 30.2455 171.011 30.2465H166.896ZM285.394 30.2322C285.256 30.2323 285.12 30.2053 284.993 30.1527C284.866 30.1002 284.751 30.0231 284.654 29.9259C284.557 29.8287 284.479 29.7134 284.427 29.5864C284.374 29.4594 284.348 29.3232 284.348 29.1858V18.3267C284.348 18.2615 284.335 18.1971 284.31 18.1369C284.286 18.0766 284.249 18.0219 284.203 17.9758C284.157 17.9297 284.102 17.8932 284.042 17.8684C283.982 17.8436 283.917 17.831 283.852 17.8313H270.116C270.051 17.831 269.986 17.8436 269.926 17.8684C269.866 17.8932 269.811 17.9297 269.765 17.9758C269.719 18.0219 269.682 18.0766 269.658 18.1369C269.633 18.1971 269.62 18.2615 269.62 18.3267V29.1858C269.621 29.3232 269.594 29.4594 269.541 29.5864C269.489 29.7134 269.412 29.8287 269.314 29.9259C269.217 30.0231 269.102 30.1002 268.975 30.1527C268.848 30.2053 268.712 30.2323 268.574 30.2322H266.014C265.877 30.2323 265.741 30.2053 265.614 30.1527C265.487 30.1002 265.372 30.0231 265.274 29.9259C265.177 29.8287 265.1 29.7134 265.048 29.5864C264.995 29.4594 264.968 29.3232 264.968 29.1858V1.80846C264.968 1.67111 264.996 1.53512 265.048 1.40823C265.101 1.28135 265.178 1.16612 265.275 1.06902C265.372 0.971914 265.487 0.894934 265.614 0.842406C265.741 0.789879 265.877 0.762872 266.014 0.762919H268.574C268.712 0.762872 268.848 0.789879 268.975 0.842406C269.102 0.894934 269.217 0.971914 269.314 1.06902C269.411 1.16612 269.488 1.28135 269.541 1.40823C269.593 1.53512 269.62 1.67111 269.62 1.80846V12.6691C269.62 12.7343 269.633 12.7989 269.658 12.8591C269.682 12.9194 269.719 12.9741 269.765 13.0202C269.811 13.0663 269.866 13.1029 269.926 13.1278C269.986 13.1526 270.051 13.1654 270.116 13.1652H283.853C283.918 13.1653 283.983 13.1527 284.043 13.1278C284.103 13.1028 284.158 13.0663 284.204 13.0202C284.25 12.9741 284.286 12.9192 284.311 12.859C284.336 12.7987 284.349 12.7343 284.348 12.6691V1.80846C284.348 1.67111 284.375 1.53512 284.428 1.40823C284.481 1.28135 284.558 1.16612 284.655 1.06902C284.752 0.971914 284.867 0.894934 284.994 0.842406C285.121 0.789879 285.257 0.762872 285.394 0.762919H287.953C288.091 0.762778 288.227 0.789747 288.354 0.842232C288.481 0.894717 288.596 0.97173 288.693 1.06884C288.791 1.16595 288.868 1.28112 288.92 1.40806C288.973 1.53499 289 1.67105 289 1.80846V29.1858C289 29.3233 288.973 29.4595 288.921 29.5865C288.868 29.7136 288.791 29.8289 288.694 29.9261C288.596 30.0233 288.481 30.1004 288.354 30.1529C288.227 30.2054 288.091 30.2323 287.953 30.2322H285.394ZM207.377 30.2322C207.239 30.2323 207.103 30.2053 206.976 30.1527C206.849 30.1002 206.734 30.0231 206.637 29.9259C206.54 29.8287 206.463 29.7134 206.41 29.5864C206.358 29.4594 206.331 29.3232 206.331 29.1858V26.6265C206.331 26.4891 206.358 26.3531 206.41 26.2261C206.463 26.0991 206.54 25.9838 206.637 25.8867C206.734 25.7896 206.849 25.7126 206.976 25.6601C207.103 25.6076 207.239 25.5808 207.377 25.581H228.039C228.176 25.5808 228.312 25.6076 228.439 25.6601C228.566 25.7126 228.681 25.7896 228.779 25.8867C228.876 25.9838 228.953 26.0991 229.005 26.2261C229.058 26.3531 229.085 26.4891 229.085 26.6265V29.1858C229.085 29.3232 229.058 29.4594 229.005 29.5864C228.953 29.7134 228.876 29.8287 228.779 29.9259C228.681 30.0231 228.566 30.1002 228.439 30.1527C228.312 30.2053 228.176 30.2323 228.039 30.2322H207.377ZM188.823 30.2322C188.686 30.2323 188.549 30.2054 188.422 30.1529C188.295 30.1003 188.18 30.0233 188.083 29.9261C187.986 29.8289 187.909 29.7134 187.856 29.5864C187.804 29.4594 187.777 29.3232 187.777 29.1858V5.92472C187.777 5.85958 187.765 5.79497 187.74 5.73472C187.715 5.67447 187.679 5.61968 187.633 5.57365C187.587 5.52762 187.532 5.49131 187.471 5.46662C187.411 5.44194 187.347 5.42937 187.281 5.42984H179.134C178.996 5.42984 178.86 5.40279 178.733 5.35018C178.606 5.29757 178.491 5.22043 178.394 5.12322C178.297 5.02602 178.22 4.91065 178.167 4.78366C178.115 4.65667 178.088 4.52068 178.088 4.38326V1.82205C178.088 1.68472 178.115 1.54872 178.167 1.42183C178.22 1.29494 178.297 1.17968 178.394 1.08261C178.491 0.985548 178.606 0.908593 178.733 0.856177C178.86 0.803761 178.996 0.776978 179.134 0.777213H201.089C201.226 0.776978 201.362 0.803761 201.489 0.856177C201.616 0.908593 201.732 0.985548 201.829 1.08261C201.926 1.17968 202.003 1.29494 202.055 1.42183C202.108 1.54872 202.135 1.68472 202.135 1.82205V4.38326C202.135 4.52068 202.108 4.65667 202.056 4.78366C202.003 4.91065 201.926 5.02602 201.829 5.12322C201.732 5.22043 201.616 5.29757 201.489 5.35018C201.362 5.40279 201.226 5.42984 201.089 5.42984H192.939C192.874 5.42937 192.809 5.44194 192.749 5.46662C192.689 5.49131 192.634 5.52762 192.588 5.57365C192.542 5.61968 192.505 5.67447 192.481 5.73472C192.456 5.79497 192.443 5.85958 192.444 5.92472V29.1854C192.438 29.4637 192.325 29.729 192.127 29.9245C191.929 30.1201 191.662 30.2303 191.384 30.2318L188.823 30.2322ZM123.649 30.2322C123.511 30.2323 123.375 30.2054 123.248 30.1529C123.121 30.1003 123.006 30.0233 122.909 29.9261C122.811 29.8289 122.734 29.7134 122.682 29.5864C122.629 29.4594 122.602 29.3232 122.603 29.1858V26.6265C122.602 26.4891 122.629 26.3531 122.682 26.2261C122.734 26.0991 122.812 25.9838 122.909 25.8867C123.006 25.7896 123.121 25.7126 123.248 25.6601C123.375 25.6076 123.511 25.5808 123.649 25.581H144.309C144.446 25.5808 144.583 25.6076 144.709 25.6601C144.836 25.7126 144.952 25.7896 145.049 25.8867C145.146 25.9838 145.223 26.0991 145.276 26.2261C145.328 26.3531 145.355 26.4891 145.355 26.6265V29.1858C145.355 29.3232 145.328 29.4594 145.276 29.5864C145.223 29.7134 145.146 29.8289 145.049 29.9261C144.952 30.0233 144.837 30.1003 144.71 30.1529C144.583 30.2054 144.446 30.2323 144.309 30.2322H123.649ZM105.439 30.219H101.762C101.556 30.2157 101.355 30.1529 101.184 30.038C101.013 29.9231 100.879 29.7612 100.798 29.5717L98.6228 24.4521C98.5539 24.2841 98.5539 24.0956 98.6228 23.9276L100.715 18.8772C100.741 18.8131 100.786 18.7584 100.844 18.7199C100.901 18.6814 100.969 18.6608 101.038 18.6608C101.108 18.6608 101.175 18.6814 101.233 18.7199C101.291 18.7584 101.336 18.8131 101.362 18.8772L103.564 24.1901L103.537 24.2593C106.702 16.6481 109.868 9.02734 113.033 1.3969C113.115 1.20567 113.252 1.04266 113.425 0.927646C113.599 0.812633 113.802 0.750616 114.01 0.749322H116.79C116.964 0.748974 117.135 0.791431 117.288 0.873086C117.441 0.954741 117.572 1.07302 117.669 1.21736C117.766 1.36169 117.825 1.52769 117.842 1.70056C117.859 1.87343 117.834 2.04784 117.767 2.20834L106.412 29.5857C106.33 29.7768 106.193 29.9398 106.02 30.0547C105.846 30.1697 105.643 30.2316 105.435 30.2329L105.439 30.219ZM68.8108 30.2322C68.6733 30.2323 68.5372 30.2053 68.4103 30.1527C68.2833 30.1002 68.1679 30.0231 68.0708 29.9259C67.9736 29.8287 67.8966 29.7134 67.8441 29.5864C67.7916 29.4594 67.7646 29.3232 67.7648 29.1858V1.80846C67.7648 1.67111 67.7918 1.53512 67.8444 1.40823C67.897 1.28135 67.974 1.16612 68.0711 1.06902C68.1683 0.971914 68.2836 0.894934 68.4105 0.842406C68.5374 0.789879 68.6734 0.762872 68.8108 0.762919H71.3715C71.5088 0.762872 71.6448 0.789879 71.7718 0.842406C71.8987 0.894934 72.014 0.971914 72.1111 1.06902C72.2082 1.16612 72.2853 1.28135 72.3379 1.40823C72.3904 1.53512 72.4175 1.67111 72.4175 1.80846V25.0714C72.4173 25.1365 72.43 25.201 72.4548 25.2611C72.4796 25.3212 72.5161 25.3759 72.5621 25.4218C72.6082 25.4678 72.6628 25.5041 72.723 25.5288C72.7831 25.5536 72.8476 25.5663 72.9126 25.566H88.1635C88.301 25.566 88.4371 25.593 88.5641 25.6456C88.691 25.6983 88.8064 25.7753 88.9035 25.8726C89.0007 25.9698 89.0777 26.0853 89.1302 26.2123C89.1827 26.3394 89.2097 26.4755 89.2095 26.6129V29.1858C89.2097 29.3232 89.1828 29.4594 89.1303 29.5864C89.0778 29.7134 89.0008 29.8289 88.9036 29.9261C88.8064 30.0233 88.6911 30.1003 88.5641 30.1529C88.4371 30.2054 88.301 30.2323 88.1635 30.2322H68.8108ZM1.04928 30.2322C0.911793 30.2324 0.775606 30.2056 0.64853 30.1531C0.521454 30.1006 0.405988 30.0235 0.308749 29.9263C0.211511 29.8291 0.134412 29.7136 0.0818719 29.5865C0.0293319 29.4595 0.00238365 29.3233 0.00257175 29.1858V27.0663C0.00266546 26.9289 0.0298164 26.7931 0.0824738 26.6662C0.135131 26.5394 0.212263 26.4241 0.309464 26.327C0.406665 26.23 0.522031 26.153 0.648971 26.1006C0.775911 26.0482 0.911939 26.0213 1.04928 26.0215H21.0354C22.1449 26.0256 23.2122 25.5961 24.0094 24.8244C24.8067 24.0528 25.2709 23.0002 25.3029 21.8911C25.3098 21.3353 25.2063 20.7835 24.9985 20.268C24.7906 19.7525 24.4826 19.2834 24.0921 18.8878C23.7016 18.4922 23.2366 18.1781 22.7238 17.9636C22.211 17.7491 21.6608 17.6385 21.105 17.6381H8.51015C6.30785 17.648 4.18821 16.8001 2.60029 15.2741C1.01237 13.7481 0.0809204 11.6639 0.00328574 9.46296C-0.0281364 8.33815 0.16608 7.21833 0.574472 6.16981C0.982864 5.12129 1.59716 4.16517 2.3811 3.35794C3.16504 2.55071 4.10274 1.90867 5.13885 1.46976C6.17497 1.03086 7.28852 0.804004 8.41376 0.802488H28.4548C28.7324 0.802678 28.9985 0.913103 29.1946 1.10946C29.3908 1.30581 29.5009 1.57205 29.5008 1.8496V3.96944C29.5009 4.10685 29.4739 4.24287 29.4213 4.36984C29.3688 4.4968 29.2917 4.61221 29.1946 4.7094C29.0975 4.8066 28.9822 4.88373 28.8552 4.93636C28.7283 4.98899 28.5922 5.01615 28.4548 5.0162H8.48266C7.92172 5.01421 7.36592 5.12319 6.84729 5.33693C6.32866 5.55067 5.85744 5.86486 5.46077 6.2615C5.0641 6.65813 4.74983 7.12938 4.53604 7.648C4.32226 8.16661 4.21319 8.7223 4.21513 9.28324C4.237 10.3822 4.68902 11.4288 5.47407 12.1981C6.25913 12.9674 7.31461 13.3982 8.41376 13.3978H21.1046C22.2297 13.3989 23.3431 13.6254 24.3792 14.064C25.4152 14.5026 26.3529 15.1443 27.1369 15.9513C27.9208 16.7583 28.5351 17.714 28.9435 18.7623C29.352 19.8106 29.5462 20.9303 29.5147 22.0549C29.4373 24.2559 28.5059 26.3402 26.9179 27.8662C25.33 29.3923 23.2102 30.2402 21.0079 30.2301L1.04928 30.2322ZM99.4435 27.0192L99.4368 27.0382C99.4375 27.0316 99.4401 27.0252 99.4443 27.0199L99.4435 27.0192ZM99.4507 26.9971C99.4499 27.005 99.4475 27.0123 99.4435 27.0192L99.4507 26.9971ZM173.2 22.992L169.344 15.1603C169.245 14.9492 169.194 14.719 169.193 14.4858V1.80811C169.196 1.52928 169.309 1.26293 169.508 1.0671C169.706 0.871263 169.974 0.761894 170.253 0.76257H172.813C172.95 0.762523 173.086 0.78953 173.213 0.842058C173.34 0.894585 173.455 0.971565 173.552 1.06867C173.649 1.16577 173.727 1.281 173.779 1.40788C173.832 1.53477 173.859 1.67076 173.859 1.80811V22.8399C173.86 22.886 173.851 22.9318 173.834 22.9746C173.817 23.0174 173.791 23.0562 173.759 23.0888C173.726 23.1214 173.687 23.147 173.645 23.1643C173.602 23.1815 173.556 23.1899 173.51 23.189C173.445 23.1886 173.382 23.1701 173.327 23.1353C173.273 23.1006 173.229 23.0512 173.201 22.9927L173.2 22.992ZM96.5886 19.5781L89.4177 2.22019C89.3532 2.05969 89.329 1.88581 89.347 1.7138C89.3651 1.5418 89.4248 1.37687 89.5211 1.23322C89.6174 1.08957 89.7473 0.971496 89.8996 0.889471C90.0518 0.807447 90.2218 0.763961 90.3948 0.76257H93.1761C93.3835 0.759273 93.587 0.81942 93.7592 0.934967C93.9315 1.05051 94.0644 1.21596 94.14 1.4091C95.8472 5.55347 97.5672 9.72376 99.2879 13.8803C99.3291 13.9957 99.3291 14.1218 99.2879 14.2373L97.2373 19.5641C97.2143 19.6311 97.171 19.6894 97.1134 19.7306C97.0559 19.7719 96.9869 19.7942 96.916 19.7944C96.8461 19.7952 96.7776 19.7751 96.7192 19.7367C96.6608 19.6983 96.6152 19.6433 96.5883 19.5788L96.5886 19.5781ZM207.378 17.817C207.24 17.817 207.104 17.7899 206.977 17.7373C206.85 17.6848 206.735 17.6077 206.638 17.5105C206.541 17.4134 206.464 17.2979 206.411 17.171C206.359 17.044 206.332 16.908 206.332 16.7706V14.2095C206.332 14.0723 206.359 13.9363 206.411 13.8095C206.464 13.6827 206.541 13.5675 206.638 13.4705C206.735 13.3734 206.851 13.2964 206.978 13.244C207.105 13.1916 207.241 13.1647 207.378 13.1649H228.039C228.176 13.1647 228.312 13.1916 228.439 13.244C228.566 13.2964 228.681 13.3734 228.778 13.4705C228.875 13.5675 228.952 13.6827 229.005 13.8095C229.058 13.9363 229.085 14.0723 229.085 14.2095V16.7706C229.085 16.908 229.058 17.044 229.005 17.171C228.953 17.2979 228.876 17.4134 228.778 17.5105C228.681 17.6077 228.566 17.6848 228.439 17.7373C228.312 17.7899 228.176 17.817 228.039 17.817H207.378ZM123.649 17.817C123.512 17.8171 123.376 17.7901 123.249 17.7375C123.122 17.6849 123.007 17.6079 122.909 17.5107C122.812 17.4135 122.735 17.2981 122.683 17.1712C122.63 17.0442 122.603 16.908 122.603 16.7706V14.2095C122.603 14.0723 122.63 13.9363 122.683 13.8095C122.736 13.6827 122.813 13.5675 122.91 13.4705C123.007 13.3734 123.122 13.2964 123.249 13.244C123.376 13.1916 123.512 13.1647 123.649 13.1649H144.31C144.447 13.1647 144.583 13.1916 144.71 13.244C144.837 13.2964 144.952 13.3734 145.049 13.4705C145.146 13.5675 145.224 13.6827 145.276 13.8095C145.329 13.9363 145.356 14.0723 145.356 14.2095V16.7706C145.356 16.908 145.329 17.0442 145.276 17.1712C145.224 17.2981 145.147 17.4135 145.05 17.5107C144.953 17.6079 144.837 17.6849 144.71 17.7375C144.583 17.7901 144.447 17.8171 144.31 17.817H123.649ZM206.332 4.36931V1.80811C206.332 1.67076 206.359 1.53477 206.411 1.40788C206.464 1.281 206.541 1.16577 206.638 1.06867C206.735 0.971565 206.851 0.894585 206.978 0.842058C207.104 0.78953 207.24 0.762523 207.378 0.76257H228.039C228.176 0.762523 228.312 0.78953 228.439 0.842058C228.566 0.894585 228.681 0.971565 228.778 1.06867C228.875 1.16577 228.952 1.281 229.005 1.40788C229.058 1.53477 229.085 1.67076 229.085 1.80811V4.36931C229.085 4.50666 229.058 4.64265 229.005 4.76954C228.952 4.89643 228.875 5.01165 228.778 5.10876C228.681 5.20586 228.566 5.28284 228.439 5.33537C228.312 5.38789 228.176 5.4149 228.039 5.41485H207.352C207.216 5.41383 207.082 5.38592 206.957 5.33275C206.832 5.27958 206.719 5.20224 206.624 5.1051C206.529 5.00795 206.454 4.89292 206.404 4.76675C206.354 4.64058 206.329 4.50579 206.331 4.37001L206.332 4.36931ZM122.603 4.36931V1.80811C122.603 1.67075 122.63 1.53479 122.683 1.40788C122.735 1.28098 122.812 1.1656 122.91 1.06849C123.007 0.971381 123.122 0.894394 123.249 0.841883C123.376 0.789373 123.512 0.762476 123.649 0.76257H144.31C144.447 0.762476 144.583 0.789373 144.71 0.841883C144.837 0.894394 144.952 0.971381 145.049 1.06849C145.147 1.1656 145.224 1.28098 145.276 1.40788C145.329 1.53479 145.356 1.67075 145.356 1.80811V4.36931C145.356 4.50667 145.329 4.64263 145.276 4.76954C145.224 4.89645 145.147 5.01182 145.049 5.10893C144.952 5.20604 144.837 5.28303 144.71 5.33554C144.583 5.38805 144.447 5.41495 144.31 5.41485H123.624C123.488 5.41388 123.354 5.38608 123.229 5.33293C123.104 5.27977 122.99 5.20243 122.895 5.10527C122.801 5.00811 122.726 4.89312 122.676 4.76693C122.625 4.64073 122.601 4.50581 122.603 4.37001L122.603 4.36931Z" fill="white"/>
</svg>
